<?xml version="1.0" standalone="no"?>
<!DOCTYPE svg PUBLIC "-//W3C//DTD SVG 20010904//EN"
 "http://www.w3.org/TR/2001/REC-SVG-20010904/DTD/svg10.dtd">
<svg version="1.0" xmlns="http://www.w3.org/2000/svg"
 width="900.000000pt" height="900.000000pt" viewBox="0 0 900.000000 900.000000"
 preserveAspectRatio="xMidYMid meet">
<metadata>
Created by potrace 1.16, written by Peter Selinger 2001-2019
</metadata>
<g transform="translate(0.000000,900.000000) scale(0.100000,-0.100000)"
fill="#000000" stroke="none">
<path d="M3856 7029 c-195 -17 -411 -72 -585 -148 -667 -294 -1115 -957 -1124
-1667 l-2 -141 -105 -6 c-504 -31 -970 -354 -1195 -829 -116 -245 -157 -560
-111 -833 77 -445 369 -838 773 -1039 174 -87 327 -129 523 -146 159 -14 4350
-13 4529 0 833 64 1514 695 1636 1518 20 135 20 394 1 522 -116 745 -668 1330
-1407 1489 -289 62 -587 44 -882 -54 -56 -19 -105 -31 -108 -27 -3 4 -18 45
-33 92 -35 108 -150 343 -213 437 -194 288 -455 518 -748 659 -201 97 -424
157 -653 174 -132 11 -169 11 -296 -1z m447 -379 c497 -96 907 -428 1110 -900
48 -113 82 -242 112 -429 14 -85 27 -156 29 -159 2 -2 64 27 137 63 171 86
281 130 399 160 334 84 682 43 998 -120 138 -70 254 -159 372 -282 195 -203
311 -426 371 -713 31 -148 31 -390 0 -540 -60 -289 -178 -514 -378 -721 -168
-173 -355 -291 -581 -365 -223 -73 -18 -67 -2507 -71 -2284 -4 -2353 -3 -2493
33 -89 23 -216 78 -300 130 -107 66 -282 243 -346 352 -246 414 -191 938 135
1286 117 126 276 229 434 282 183 61 345 69 603 28 90 -14 165 -24 167 -22 1
2 -11 71 -27 153 -26 132 -30 173 -31 340 -2 215 15 323 80 509 187 540 688
940 1260 1006 116 13 333 4 456 -20z"/>
</g>
</svg>
