<?xml version="1.0" standalone="no"?>
<!DOCTYPE svg PUBLIC "-//W3C//DTD SVG 20010904//EN"
 "http://www.w3.org/TR/2001/REC-SVG-20010904/DTD/svg10.dtd">
<svg version="1.0" xmlns="http://www.w3.org/2000/svg"
 width="260.000000pt" height="260.000000pt" viewBox="0 0 260.000000 260.000000"
 preserveAspectRatio="xMidYMid meet">
<metadata>
Created by potrace 1.16, written by Peter Selinger 2001-2019
</metadata>
<g transform="translate(0.000000,260.000000) scale(0.100000,-0.100000)"
fill="#000000" stroke="none">
<path d="M1170 2595 c-8 -2 -49 -9 -90 -15 -108 -18 -265 -71 -378 -129 -105
-55 -252 -160 -264 -188 -14 -37 -8 -128 11 -163 24 -47 83 -80 142 -80 40 0
56 7 120 54 141 102 279 162 431 186 111 18 322 8 417 -20 93 -26 202 -76 278
-127 83 -55 204 -174 260 -255 56 -82 71 -62 -125 -180 l-133 -80 18 -28 c62
-97 589 -870 594 -870 17 0 99 229 126 352 25 115 25 380 0 495 -56 264 -164
468 -344 654 -188 194 -407 316 -678 375 -63 14 -348 28 -385 19z"/>
<path d="M117 1833 c-77 -172 -111 -336 -111 -533 0 -161 16 -263 64 -409 197
-603 819 -979 1442 -871 232 40 445 137 621 283 60 49 79 86 79 149 -1 62 -27
116 -71 145 -63 43 -124 25 -251 -71 -92 -70 -229 -139 -335 -167 -113 -31
-332 -38 -446 -14 -228 46 -450 187 -587 373 -86 117 -91 100 58 182 72 39
129 74 127 78 -57 102 -551 912 -556 912 -5 0 -20 -26 -34 -57z"/>
</g>
</svg>
